<svg xmlns="http://www.w3.org/2000/svg" xml:space="preserve" style="enable-background:new 0 0 500 500" viewBox="0 0 500 500"><path d="M0 0h500v500H0z" style="fill:#fff"/><path d="M47.197 367.171s-35.54-101.764-3.261-117.137c32.279-15.373-6.709-113.268 55.586-130.642s34.924-92.366 140.74-61.672C346.079 88.413 352.986 5.229 402.489 87.634c49.504 82.405 26.289 122.6 62.562 133.963 36.272 11.363 17.411 114.846-11.607 145.573l-406.247.001z" style="fill:#ccb6f3"/><path d="M464.007 375.578c0 4.819-94.943 13.089-212.06 13.089s-212.06-8.27-212.06-13.089c0-4.819 94.943-8.725 212.06-8.725s212.06 3.906 212.06 8.725z" style="fill:#e0e0e0"/><path d="M206.673 121.095h45.15s.708-8.331-8.922-5.542c-9.63 2.79-3.289-9.438-20.068-8.675-16.618.757-25.331.001-16.16 14.217z" style="fill:#fff"/><path d="M344.974 205.123c35.693 0 47.606-56.202 31.286-47.275s15.979-57.002-12.05-43.931 8.553-40.882-26.419-40.269c-34.973.613-4.79 48.051-26.2 43.026-21.41-5.025 13.371 53.47-7.811 45.554-21.182-7.916-16.741 42.895 41.194 42.895z" style="fill:#e669ad"/><path d="m338.842 78.572.152 30.854.131 67.88-.13 67.88-.153 30.854-.153-30.854-.13-67.88.13-67.88.153-30.854z" style="fill:#401a4c"/><path d="M364.392 123.964s-.057.543-.289 1.468c-.097.468-.283 1.016-.461 1.658-.235.62-.436 1.35-.793 2.089l-.523 1.168-.647 1.208c-.208.424-.474.828-.748 1.24-.274.412-.539.845-.852 1.253-.666.784-1.281 1.661-2.093 2.384-.391.373-.764.775-1.179 1.132l-1.306 1.006-.66.496-.715.409-1.423.806c-.962.493-1.981.826-2.927 1.228-.979.312-1.96.501-2.871.732-.453.134-.911.165-1.352.211l-1.272.134c-.815.088-1.56.183-2.227.125l-1.719-.05-1.493-.055 1.495-.055 1.71-.05c.662.017 1.396-.122 2.199-.232l1.251-.177c.432-.061.882-.107 1.323-.255.889-.261 1.84-.486 2.798-.792.921-.407 1.913-.742 2.845-1.234l1.377-.803.692-.405.637-.49 1.284-.964c.408-.343.776-.731 1.162-1.09.801-.695 1.411-1.547 2.073-2.306.313-.394.569-.821.857-1.212.283-.395.558-.783.778-1.191l.679-1.167.557-1.133c.373-.72.614-1.425.885-2.028.213-.623.43-1.159.553-1.617.289-.907.395-1.441.395-1.441zM337.798 133.314s-1.607.273-4.051.272c-1.22-.008-2.648-.063-4.165-.271a27.85 27.85 0 0 1-4.684-1.042c-1.556-.514-3.058-1.21-4.353-2.047a12.468 12.468 0 0 1-1.768-1.343 12.678 12.678 0 0 1-1.386-1.422c-.406-.463-.716-.935-.988-1.352-.261-.424-.458-.811-.631-1.121l-.445-1.025.542.972c.196.294.42.66.709 1.055.302.387.639.823 1.052 1.259.407.44.875.894 1.415 1.319.527.439 1.129.844 1.762 1.241 1.27.792 2.741 1.445 4.268 1.925 1.518.508 3.088.871 4.579 1.094 1.49.226 2.893.384 4.103.439 2.417.138 4.041.047 4.041.047zM349.053 98.178s.153 1.515.047 3.797c-.065 1.138-.163 2.471-.404 3.882a27.374 27.374 0 0 1-1.102 4.353 18.316 18.316 0 0 1-.919 2.101c-.36.667-.734 1.317-1.181 1.89-.421.591-.924 1.091-1.42 1.533-.251.219-.521.401-.767.593l-.774.47c-.519.26-1.01.461-1.465.578-.444.15-.857.177-1.18.251-.666.054-1.044.065-1.044.065l1.025-.174c.315-.101.713-.16 1.133-.343.431-.152.887-.387 1.374-.656l.718-.488c.227-.197.475-.383.703-.604.452-.448.9-.949 1.301-1.517.419-.555.769-1.189 1.105-1.839.323-.659.613-1.347.858-2.053a26.819 26.819 0 0 0 1.152-4.248c.259-1.386.459-2.692.57-3.819.241-2.252.27-3.772.27-3.772zM338.842 104.073s-.208.146-.614.323c-.2.096-.455.183-.748.287-.298.086-.636.19-1.021.228-.379.072-.805.06-1.25.042l-.686-.095c-.23-.056-.456-.151-.69-.23-.243-.064-.446-.218-.668-.343-.218-.132-.451-.251-.629-.442l-.577-.529c-.17-.196-.315-.414-.474-.622-.335-.41-.519-.896-.743-1.352-.248-.449-.345-.939-.5-1.392-.069-.229-.145-.452-.203-.675l-.105-.664-.191-1.212c-.051-.375-.045-.725-.061-1.032l-.028-.795-.013-.691.123.682c.072.433.171 1.052.294 1.788a1143.999 1143.999 0 0 1 .432 1.808l.222.643c.16.431.265.905.511 1.318.223.424.408.881.725 1.246.141.194.269.4.42.584l.51.49c.156.181.363.288.556.412.196.117.375.264.592.325l.614.234.62.134c.408.047.807.092 1.171.051a7.387 7.387 0 0 0 1.761-.301c.418-.118.65-.22.65-.22zM374.235 167.288s-.196.677-.677 1.812a35.552 35.552 0 0 1-.928 2.02c-.403.758-.834 1.63-1.419 2.514-.533.917-1.221 1.836-1.93 2.824-.347.5-.778.954-1.178 1.451-.415.485-.813 1.004-1.301 1.457l-1.433 1.426c-.473.495-1.042.895-1.567 1.353-.548.43-1.051.929-1.646 1.31l-1.757 1.191c-.297.192-.583.404-.891.577l-.939.493-1.865.978c-1.258.596-2.563 1.036-3.789 1.54-1.256.422-2.515.69-3.685 1.011-.295.072-.581.162-.871.215l-.862.125-1.635.237c-1.048.145-2.003.327-2.867.303l-2.223.057-1.932.05 1.929-.145 2.209-.166c.857-.02 1.799-.251 2.836-.415l1.614-.28.85-.147c.285-.06.567-.158.857-.237 1.149-.351 2.381-.656 3.62-1.074 1.205-.51 2.488-.954 3.721-1.553l1.827-.98.92-.493c.302-.173.58-.386.872-.575l1.74-1.156c.59-.369 1.089-.857 1.632-1.276.521-.447 1.086-.835 1.556-1.319l1.425-1.393c.487-.44.877-.955 1.304-1.419.408-.48.848-.917 1.204-1.401.726-.956 1.434-1.848 1.987-2.742.597-.865 1.068-1.705 1.507-2.439a36.2 36.2 0 0 0 1.022-1.963c.534-1.104.763-1.771.763-1.771zM338.842 181.206s-2.196.365-5.536.386c-1.667-.009-3.617-.077-5.691-.344a40.476 40.476 0 0 1-6.404-1.365 31.58 31.58 0 0 1-3.119-1.179c-1.004-.449-1.979-.929-2.875-1.477a19.296 19.296 0 0 1-2.486-1.718 13.994 13.994 0 0 1-1.065-.908 11.457 11.457 0 0 1-.939-.908c-.601-.585-1.067-1.198-1.493-1.726-.4-.549-.73-1.04-1-1.443l-.767-1.319.846 1.266c.294.384.652.85 1.081 1.367.457.494.952 1.067 1.558 1.628.289.295.609.58.955.86.337.29.689.585 1.077.855.379.282.768.57 1.192.827.415.27.837.548 1.29.794.883.527 1.846.986 2.837 1.416a31.3 31.3 0 0 0 3.078 1.124 40.037 40.037 0 0 0 6.301 1.419c2.047.285 3.973.457 5.63.512 1.656.051 3.041.059 4.009.02.968-.035 1.521-.087 1.521-.087z" style="fill:#401a4c"/><linearGradient id="a" x1="337.798" x2="430.759" y1="181.681" y2="181.681" gradientUnits="userSpaceOnUse"><stop offset="0" style="stop-color:#e2469a"/><stop offset="1" style="stop-color:#e669ad"/></linearGradient><path d="M376.972 247.421c-36.343 0-48.473-56.202-31.856-47.275 16.617 8.927-16.27-57.002 12.27-43.931 28.539 13.072-8.709-40.882 26.901-40.269s4.878 48.051 26.678 43.026c21.8-5.025-13.615 53.47 7.953 45.554 21.567-7.915 17.045 42.895-41.946 42.895z" style="fill:url(#a)"/><path d="m383.215 120.87.152 30.854.131 67.88-.13 67.88-.153 30.854-.153-30.854-.13-67.88.131-67.88.152-30.854z" style="fill:#401a4c"/><path d="M357.199 166.262s.101.542.398 1.455c.128.462.351 1.003.574 1.63.277.608.532 1.316.913 2.042.186.365.361.754.574 1.14l.695 1.174c.223.412.517.795.801 1.195.297.391.55.827.883 1.213.67.767 1.309 1.609 2.124 2.306.397.356.762.757 1.192 1.083l1.307.964c.219.159.427.335.654.482l.704.402 1.399.801c.956.47 1.955.818 2.891 1.219.976.287 1.934.524 2.836.779.447.149.904.181 1.34.247l1.265.176c.812.111 1.555.244 2.224.23l1.729.055 1.511.048-1.51.048-1.738.055c-.674.059-1.428-.026-2.251-.118l-1.286-.133c-.444-.052-.909-.068-1.368-.202-.923-.225-1.911-.426-2.908-.718-.961-.396-1.986-.742-2.971-1.212l-1.444-.804-.727-.405c-.234-.149-.451-.325-.676-.487l-1.329-1.006c-.437-.339-.807-.755-1.21-1.124-.825-.725-1.471-1.592-2.145-2.384-.333-.4-.595-.842-.879-1.254-.275-.418-.559-.817-.772-1.245l-.664-1.217c-.202-.399-.367-.799-.541-1.175-.367-.744-.578-1.479-.816-2.107-.185-.647-.374-1.201-.474-1.674a13.05 13.05 0 0 1-.305-1.479zM384.278 175.612s1.646.091 4.099-.045c1.227-.053 2.651-.211 4.163-.435a28.229 28.229 0 0 0 4.651-1.085c1.552-.478 3.053-1.122 4.349-1.913.646-.397 1.26-.801 1.801-1.239.551-.425 1.032-.88 1.451-1.321.423-.439.773-.875 1.08-1.266.299-.396.526-.768.729-1.063l.556-.982-.46 1.036c-.18.312-.38.705-.652 1.13-.278.421-.6.894-1.016 1.36a13.18 13.18 0 0 1-1.423 1.425c-.535.476-1.144.929-1.808 1.34-1.322.835-2.853 1.521-4.434 2.033a28.74 28.74 0 0 1-4.755 1.031c-1.539.206-2.987.26-4.224.267-2.477 0-4.107-.273-4.107-.273zM372.819 140.477s.027 1.528.274 3.792c.114 1.133.318 2.445.584 3.837a26.5 26.5 0 0 0 1.184 4.262c.254.707.548 1.398.884 2.054.343.651.705 1.282 1.133 1.834.413.565.87 1.061 1.33 1.507.239.212.484.404.716.597l.729.48c.495.263.955.493 1.39.643.425.176.825.238 1.142.337l1.031.171s-.379-.013-1.05-.062c-.326-.072-.74-.102-1.188-.245-.224-.071-.469-.132-.716-.225l-.763-.34-.784-.461c-.252-.187-.518-.376-.78-.584-.504-.439-1.016-.933-1.449-1.521-.457-.57-.844-1.218-1.21-1.886a17.61 17.61 0 0 1-.946-2.103 27.022 27.022 0 0 1-1.136-4.369c-.249-1.418-.35-2.757-.418-3.901-.112-2.294.043-3.817.043-3.817zM383.215 146.372s.234.101.659.219a7.586 7.586 0 0 0 1.778.301c.368.042.77-.003 1.183-.043l.626-.134c.209-.059.411-.152.623-.226.219-.061.409-.191.604-.315.19-.131.412-.22.57-.403l.519-.49c.168-.17.288-.387.436-.578.32-.366.526-.815.747-1.245.25-.416.37-.887.529-1.323l.228-.647.159-.64.285-1.18c.078-.368.114-.713.171-1.015l.13-.786.125-.687-.015.696-.03.801c-.017.309-.009.662-.066 1.04l-.197 1.221-.112.669-.209.679c-.153.458-.266.948-.519 1.398-.223.461-.428.942-.768 1.353-.165.205-.302.432-.492.616l-.587.528c-.18.192-.429.293-.644.431-.221.132-.436.267-.679.332-.237.075-.462.18-.697.221l-.691.093c-.449.01-.876.023-1.259-.05-.388-.037-.728-.145-1.029-.228-.295-.105-.553-.189-.755-.286a3.969 3.969 0 0 1-.623-.322zM347.177 209.587s.236.673.784 1.79c.268.56.626 1.226 1.05 1.979.448.74.936 1.583 1.546 2.454.566.901 1.297 1.792 2.037 2.756.373.479.816.924 1.235 1.404.431.47.842.977 1.338 1.419l1.455 1.397c.492.472 1.059.87 1.593 1.314 1.051.915 2.259 1.651 3.44 2.424.573.416 1.204.733 1.828 1.058l1.857.978c1.262.579 2.556 1.035 3.781 1.539 1.261.4 2.505.715 3.672 1.061.58.192 1.164.287 1.73.377l1.634.279c1.049.166 2.005.388 2.872.409l2.236.166 1.952.145-1.956-.049-2.249-.057c-.874.023-1.841-.151-2.902-.298l-1.655-.236c-.573-.075-1.166-.155-1.756-.332-1.186-.316-2.457-.595-3.735-.998-1.246-.498-2.562-.949-3.848-1.525l-1.894-.975c-.636-.324-1.281-.64-1.866-1.059-1.193-.796-2.412-1.555-3.471-2.494-.538-.456-1.109-.865-1.604-1.348l-1.463-1.429c-.496-.454-.916-.965-1.335-1.457-.411-.498-.846-.959-1.21-1.454-.722-.995-1.435-1.914-1.981-2.838-.598-.89-1.048-1.766-1.459-2.531a35.221 35.221 0 0 1-.957-2.036c-.496-1.149-.699-1.833-.699-1.833zM383.215 223.504s.56.052 1.543.088c.983.039 2.387.032 4.068-.019 1.681-.054 3.637-.225 5.714-.508a44.388 44.388 0 0 0 3.18-.566 37.349 37.349 0 0 0 3.222-.842 32.21 32.21 0 0 0 3.133-1.116c1.009-.429 1.99-.886 2.892-1.41.461-.246.895-.519 1.317-.792.432-.258.834-.542 1.218-.827a13.01 13.01 0 0 0 1.102-.855c.351-.283.684-.565.979-.862.62-.564 1.131-1.137 1.597-1.636.443-.518.806-.991 1.11-1.376l.869-1.278-.79 1.332c-.281.404-.616.903-1.031 1.453-.436.533-.918 1.146-1.533 1.735-.29.312-.617.61-.964.91-.338.31-.698.619-1.091.909-.382.304-.781.607-1.212.885a14.21 14.21 0 0 1-1.329.831c-.914.545-1.907 1.023-2.93 1.471a32.03 32.03 0 0 1-3.174 1.17 37.566 37.566 0 0 1-3.279.818c-1.09.23-2.174.394-3.224.536-2.104.264-4.083.332-5.774.339a44.327 44.327 0 0 1-4.08-.204 31.667 31.667 0 0 1-1.533-.186z" style="fill:#401a4c"/><linearGradient id="b" x1="477.549" x2="348.072" y1="347.156" y2="347.156" gradientUnits="userSpaceOnUse"><stop offset="0" style="stop-color:#2abfd4"/><stop offset=".366" style="stop-color:#14aabc"/><stop offset=".728" style="stop-color:#059cab"/><stop offset="1" style="stop-color:#0097a5"/></linearGradient><path d="M350.59 373.098h125.937s7.04-21.763-15.84-14.573c-11.187 3.515 8.967-30.646-18.187-24.192-18.894 4.49-25.52-13.397-39.307-13.116-36.244.74-11.733 29.438-33.831 26.815-17.93-2.129-25.714 12.241-18.772 25.066z" style="fill:url(#b)"/><linearGradient id="c" x1="29.246" x2="158.723" y1="347.156" y2="347.156" gradientUnits="userSpaceOnUse"><stop offset="0" style="stop-color:#2abfd4"/><stop offset=".366" style="stop-color:#14aabc"/><stop offset=".728" style="stop-color:#059cab"/><stop offset="1" style="stop-color:#0097a5"/></linearGradient><path d="M31.764 373.098h125.937s7.04-21.763-15.84-14.573c-11.187 3.515 8.967-30.646-18.187-24.192-18.894 4.49-25.52-13.397-39.306-13.116-36.244.74-11.733 29.438-33.831 26.815-17.931-2.129-25.715 12.241-18.773 25.066z" style="fill:url(#c)"/><path d="M384.237 375.308c-7.931-20.87-2.504-38.818 7.931-30.888s0-13.774 0-24.209 7.096-10.018 11.687-4.174 7.096-7.513 11.27-18.366c4.174-10.852 19.618-10.018 18.783 2.922-.835 12.939-12.522 15.861-5.426 19.2s12.522 11.27-1.67 18.783c-14.192 7.513-6.678 15.026-1.67 15.861 5.009.835 11.687 10.018-5.426 20.87l-35.479.001z" style="fill:#e2469a"/><path d="M423.055 302.263s-.537 1.068-1.405 2.97c-.862 1.905-2.029 4.654-3.367 7.977-.655 1.667-1.371 3.471-2.076 5.398a275.553 275.553 0 0 0-2.168 6.079c-.754 2.108-1.453 4.313-2.175 6.55-.736 2.232-1.372 4.535-2.068 6.819l-1.925 6.861-1.691 6.692-1.447 6.291c-.487 1.995-.813 3.909-1.186 5.662-.339 1.759-.714 3.36-.951 4.797l-.665 3.712-.58 3.235.486-3.251.558-3.732c.193-1.445.52-3.057.839-4.822.344-1.76.64-3.683 1.095-5.688.434-2.009.866-4.134 1.373-6.319l1.658-6.714 1.893-6.884c.71-2.285 1.36-4.588 2.109-6.821.735-2.238 1.448-4.443 2.214-6.551.725-2.123 1.509-4.145 2.247-6.064.738-1.919 1.484-3.714 2.167-5.373a164.61 164.61 0 0 1 3.576-7.897c.922-1.874 1.489-2.927 1.489-2.927z" style="fill:#401a4c"/><path d="m399.472 321.672.05.39c.027.255.087.627.175 1.096.181.937.52 2.265 1.155 3.765.624 1.497 1.584 3.168 2.98 4.622a11.819 11.819 0 0 0 2.398 1.942c.898.55 1.9.951 2.932 1.217 1.03.278 2.101.419 3.159.408 1.058.017 2.099-.114 3.093-.299a24.77 24.77 0 0 0 2.829-.741c.89-.281 1.705-.624 2.462-.932.734-.358 1.434-.634 2.019-.951.59-.307 1.117-.554 1.527-.801l1.309-.743-1.26.825c-.395.273-.906.553-1.479.899-.567.357-1.251.681-1.983 1.061-1.494.694-3.289 1.441-5.328 1.865-1.019.202-2.09.35-3.189.346a12.17 12.17 0 0 1-3.303-.39 11.297 11.297 0 0 1-3.063-1.314 12.399 12.399 0 0 1-2.48-2.056 12.484 12.484 0 0 1-1.773-2.42 15.808 15.808 0 0 1-1.144-2.421c-.6-1.548-.819-2.92-.953-3.868a15 15 0 0 1-.105-1.109l-.028-.391zM389.246 353.812l.541 1.706c.146.553.435 1.181.749 1.904.278.739.732 1.505 1.206 2.349.215.436.52.837.831 1.255.325.406.587.885.989 1.267l1.175 1.223 1.38 1.105c.458.39 1.027.636 1.545.968.514.348 1.112.546 1.691.791l.877.357.925.237c.62.149 1.229.355 1.874.397.636.074 1.269.19 1.906.234l1.911.029c.634.043 1.259-.087 1.879-.121.617-.073 1.236-.073 1.828-.213 1.184-.25 2.355-.374 3.42-.705 1.07-.302 2.106-.514 3.014-.869l2.515-.856 1.897-.778 1.656-.679-1.617.766-1.859.88-2.488.968c-.903.384-1.94.63-3.012.967-1.066.366-2.246.537-3.448.791-.598.148-1.23.155-1.857.235-.632.042-1.265.179-1.915.142l-1.956-.01c-.654-.039-1.307-.149-1.963-.222-.66-.051-1.291-.268-1.929-.428l-.951-.255-.905-.377c-.597-.26-1.211-.471-1.741-.836-.534-.348-1.117-.611-1.588-1.017-.478-.395-.959-.771-1.406-1.163l-1.171-1.293c-.4-.404-.655-.902-.974-1.326-.304-.436-.603-.854-.808-1.304l-.649-1.253c-.212-.394-.32-.813-.472-1.181-.279-.748-.534-1.392-.651-1.952l-.449-1.733z" style="fill:#401a4c"/><path d="M119.094 372.897c6.513-17.14 2.057-31.88-6.513-25.367-8.57 6.513 0-11.312 0-19.882 0-8.57-5.827-8.227-9.598-3.428-3.771 4.799-5.827-6.17-9.255-15.083-3.428-8.913-16.111-8.227-15.426 2.4.686 10.627 10.284 13.026 4.456 15.769-5.828 2.742-10.284 9.255 1.371 15.426 11.655 6.17 5.485 12.341 1.371 13.026-4.113.686-9.598 8.227 4.456 17.14l29.138-.001z" style="fill:#e2469a"/><path d="M87.214 312.908s.469.863 1.232 2.403a131.8 131.8 0 0 1 2.955 6.479c.563 1.362 1.179 2.835 1.787 4.41.609 1.575 1.256 3.235 1.852 4.978.631 1.732 1.217 3.543 1.822 5.38.617 1.834 1.151 3.726 1.736 5.602l1.552 5.656 1.359 5.515c.416 1.794.768 3.541 1.121 5.192.37 1.647.611 3.227.891 4.673.26 1.45.525 2.774.679 3.962l.448 3.067.391 2.671-.485-2.656-.556-3.047c-.198-1.179-.51-2.493-.791-3.937-.308-1.439-.579-3.01-.982-4.648l-1.195-5.164-1.392-5.494-1.584-5.633c-.571-1.875-1.092-3.766-1.695-5.6-.591-1.837-1.165-3.648-1.783-5.379a243.587 243.587 0 0 0-1.774-4.994c-.576-1.584-1.161-3.066-1.697-4.436-1.095-2.73-2.043-4.992-2.747-6.559-.706-1.562-1.144-2.441-1.144-2.441z" style="fill:#401a4c"/><path d="m106.582 328.848-.095 1.233c-.048.39-.149.861-.244 1.406-.141.532-.285 1.142-.532 1.777l-.405.984c-.15.336-.352.661-.535 1.008-.173.354-.409.682-.655 1.014-.24.337-.481.686-.8.98-.313.295-.583.65-.947.908-.358.263-.711.547-1.087.8l-1.22.633c-.42.186-.874.292-1.312.441-.436.168-.905.171-1.358.239-.456.059-.91.125-1.362.076l-1.341-.059c-.436-.064-.861-.161-1.282-.239-.854-.115-1.62-.431-2.357-.686-.749-.227-1.403-.567-2.013-.864-.604-.308-1.185-.536-1.637-.855l-1.204-.758-1.04-.668 1.096.573 1.248.667c.469.282 1.063.466 1.669.75.614.267 1.272.574 2.015.764.732.218 1.493.488 2.317.594.408.069.821.158 1.242.214l1.286.037c.434.042.864-.029 1.295-.091.429-.071.874-.077 1.281-.242.413-.136.844-.227 1.242-.397l1.159-.58c.358-.235.695-.499 1.039-.743.349-.238.609-.576.913-.852.311-.272.538-.611.787-.92.25-.309.493-.614.673-.95.19-.328.401-.635.561-.955l.436-.942c.262-.611.447-1.198.624-1.711.129-.526.263-.982.338-1.368l.205-1.218zM114.981 355.243l-.354 1.427c-.094.459-.302.99-.53 1.606-.197.631-.536 1.29-.915 2.005-.168.371-.412.715-.662 1.075-.261.35-.471.761-.799 1.095l-.962 1.069c-.367.325-.763.635-1.157.961-.832.583-1.735 1.156-2.742 1.53l-.746.312-.784.211c-.525.133-1.045.312-1.589.355-.54.06-1.078.15-1.617.181l-1.611.007c-.535.03-1.056-.084-1.576-.118-.516-.067-1.036-.073-1.528-.195-.988-.21-1.958-.354-2.834-.657-.881-.28-1.732-.485-2.473-.803l-2.042-.802-1.526-.728-1.322-.644 1.366.543 1.56.633 2.067.696c.746.288 1.597.46 2.475.705.875.269 1.835.367 2.806.572.485.115.993.113 1.498.173.508.028 1.02.134 1.54.098l1.565-.025c.522-.037 1.04-.132 1.561-.193.527-.034 1.027-.202 1.534-.323l.757-.193.718-.291c.973-.347 1.842-.887 2.65-1.436l1.131-.902.965-.998c.331-.311.547-.704.814-1.035.256-.341.508-.669.685-1.026.391-.69.765-1.318.995-1.923.259-.592.499-1.106.62-1.56l.462-1.402z" style="fill:#401a4c"/><path d="M401.651 416.879s58.142 4.627 34.407-25.503c1.415 10.98-13.642 26.001-34.407 25.503zM348.824 419.297c-49.191-3.399-50.529-17.83-40.67-26.817 2.634 8.012 2.803 18.608 40.67 26.817z" style="fill:#e0e0e0"/><path d="M377.615 395.946c-37.781-2.102-53.722 11.73-14.585 12.214s90.633-7.983 14.585-12.214zM374.087 381.639s53.785-8.224 61.971 10.842c-4.872-14.791-28.144-22.37-61.971-10.842zM133.709 371.283s-56.579-1.114-72.056 19.199c-15.477 20.313 20.796 15.149 54.745 12.161 9.888-7.746 75.034-1.802 58.59 7.051-19.11 10.29-52.155 3.98-57.33-3.019-63.671 4.246-74.857-5.203-65.915-16.744 8.943-11.54 49.07-25.069 81.966-18.648z" style="fill:#e0e0e0"/><path d="M84.003 404.38c-52.234 1.269-38.207-42.085 58.508-35.366M398.228 252.64c39.946 15.858 59.24 31.83 58.187 62.429-.97 28.187-19.811 69.618-111.9 67.57-57.069-1.269-43.427 36.659 31.659 36.659 76.699 0 103.314-59.517-65.18-55.823" style="fill:none;stroke:#4b4be3;stroke-width:5.6693;stroke-miterlimit:10"/><path d="M381.259 382.122H119.207c-10.798 0-19.551-8.754-19.551-19.551V202.684c0-10.798 8.753-19.551 19.551-19.551h262.052c10.798 0 19.551 8.754 19.551 19.551v159.887c0 10.798-8.753 19.551-19.551 19.551z" style="fill:#401a4c"/><path d="M119.642 191.822h261.183v181.611H119.642z" style="fill:#fff"/><text transform="translate(166.863 303.135)"><tspan x="0" y="0" style="fill:#e2469a;font-family:&quot;Montserrat-ExtraBold&quot;;font-size:79.9714px">404</tspan><tspan x="18.043" y="16.452" style="fill:#e2469a;font-family:&quot;Montserrat-Regular&quot;;font-size:13.7098px">PAGE NOT FOUND</tspan></text><path d="M113.342 282.628a4.888 4.888 0 1 1-9.776 0 4.888 4.888 0 0 1 9.776 0zM390.6 303.917a5.01 5.01 0 0 1-4.996-4.996v-32.586a5.01 5.01 0 0 1 4.996-4.996c2.748 0 4.997 2.248 4.997 4.996v32.586c-.001 2.747-2.249 4.996-4.997 4.996z" style="fill:#652687"/><path d="M156.021 157.519H130.69a3.779 3.779 0 0 0-3.779 3.778v7.189H70.162v66.263h89.637v-73.453a3.778 3.778 0 0 0-3.778-3.777z" style="fill:#fff"/><path d="M72.903 171.202h84.155v60.747H72.903z" style="fill:#e2469a"/><text transform="translate(81.911 210.806)"><tspan x="0" y="0" style="fill:#fff;font-family:&quot;Montserrat-ExtraBold&quot;;font-size:31.7219px">404</tspan><tspan x="7.157" y="6.526" style="fill:#fff;font-family:&quot;Montserrat-Regular&quot;;font-size:5.4382px">PAGE NOT FOUND</tspan></text><path d="M129.475 166.849h7.342v1.403h-7.342zM139.112 160.909h7.342v7.342h-7.342z" style="fill:#ccb6f3"/><path d="m148.749 168.252 7.342-7.343M148.749 160.909l7.342 7.343" style="fill:none;stroke:#ccb6f3;stroke-miterlimit:10"/><path d="M313.254 128.233h-25.331a3.778 3.778 0 0 0-3.778 3.779v7.189h-56.748v66.263h89.637v-73.452a3.78 3.78 0 0 0-3.78-3.779z" style="fill:#fff"/><path d="M230.137 141.917h84.155v60.747h-84.155z" style="fill:#2abfd4"/><text transform="translate(239.144 181.521)"><tspan x="0" y="0" style="fill:#fff;font-family:&quot;Montserrat-ExtraBold&quot;;font-size:31.7219px">404</tspan><tspan x="7.157" y="6.526" style="fill:#fff;font-family:&quot;Montserrat-Regular&quot;;font-size:5.4382px">PAGE NOT FOUND</tspan></text><path d="M286.708 137.564h7.342v1.403h-7.342zM296.345 131.624h7.342v7.342h-7.342z" style="fill:#ccb6f3"/><path d="m305.982 138.967 7.343-7.343M305.982 131.624l7.343 7.343" style="fill:none;stroke:#ccb6f3;stroke-miterlimit:10"/><path d="M216.488 63.132h-25.331a3.778 3.778 0 0 0-3.778 3.778v7.19H130.63v66.263h89.637V66.911a3.78 3.78 0 0 0-3.779-3.779z" style="fill:#fff"/><path d="M133.371 76.815h84.155v60.747h-84.155z" style="fill:#4b4be3"/><text transform="translate(142.378 116.42)"><tspan x="0" y="0" style="fill:#2abfd4;font-family:&quot;Montserrat-ExtraBold&quot;;font-size:31.7219px">404</tspan><tspan x="7.157" y="6.526" style="fill:#2abfd4;font-family:&quot;Montserrat-Regular&quot;;font-size:5.4382px">PAGE NOT FOUND</tspan></text><path d="M189.943 72.463h7.342v1.403h-7.342zM199.579 66.523h7.342v7.342h-7.342z" style="fill:#ccb6f3"/><path d="m209.216 73.865 7.343-7.342M209.216 66.523l7.343 7.342" style="fill:none;stroke:#ccb6f3;stroke-miterlimit:10"/><circle cx="416.594" cy="259.658" r="8.772" style="fill:#25adbf"/><path d="M73.685 334.096c11.164 34.159 84.682 68.477 10.318 70.284M124.027 255.474c-41.286 17.99-60.291 48.179-50.342 78.622" style="fill:none;stroke:#4b4be3;stroke-width:5.6693;stroke-miterlimit:10"/><circle cx="109.18" cy="263.341" r="8.772" style="fill:#25adbf"/><path d="m355.538 279.412 1.57-4.318h2.486v4.318z" style="fill:#f8cba3"/><path d="M371.998 303.705s-9.263-7.066-10.833-9.421c-1.57-2.355 0-15.527 0-15.527l-6.804-2.094s-2.355 15.527-1.047 20.237c1.309 4.711 12.038 14.393 12.038 14.393l6.646-7.588z" style="fill:#4b4be3"/><path d="M358.493 276.32s3.228 1.491 3.838-1.74l.698-3.232c-.137-.115-.342-.246-.556-.207-.386.07-.522.642-.916 1.472a10.76 10.76 0 0 1-.796 1.393c.306-1.671.617-3.364.714-5.063.009-.166.011-2.465-.654-1.569a1.029 1.029 0 0 0-.146.361c-.376 1.437-.756 2.872-1.135 4.308.54-3.472.58-5.277.12-5.417-.368-.111-.517.395-.572.657l-.941 4.518c.021-.488.309-3.852-.35-3.964-.496-.085-.436 1.134-.448 1.408l-.119 2.723c-.06-.638-.098-1.277-.196-1.912-.054-.347-.101-.731-.245-1.055-.174-.392-.423-.445-.504.079-.194 1.247-.15 2.549.039 3.794.143.941.511 2.107.992 3.446" style="fill:#f8cba3"/><path d="M405.074 392.13c-.074.998-.42 1.919-1.199 2.71-1.038.791-2.398-.362-3.324.331l.507.616a3.063 3.063 0 0 1-.37 4.269l-1.289 1.108.564 1.651 4.292-1.467a4.434 4.434 0 0 0 2.983-3.798l.377-4.172-2.541-1.248z" style="fill:#29bfd4"/><path d="M403.875 394.839c.779-.791 1.125-1.712 1.199-2.71l-4.768-2.339-2.077 2.554 2.323 2.825c.925-.692 2.285.461 3.323-.33z" style="fill:#f8cba3"/><path d="M363.232 400.687c-.927.376-1.906.473-2.96.125-1.169-.58-.737-2.31-1.768-2.834l-.328.727c-.685 1.519-5.565 2.792-7.226 2.916l-1.695.127-.526 1.664 4.325 1.366c1.67.527 4.645.881 6.279.25l3.908-1.51-.009-2.831z" style="fill:#29bfd4"/><path d="M360.272 400.812c1.054.348 2.033.251 2.96-.125l-.015-5.311-3.21-.731-1.504 3.334c1.032.523.6 2.253 1.769 2.833z" style="fill:#f8cba3"/><path d="m375.594 342.118-6.602 25.82-3.591 29.957-8.116-1.117.77-28.079 3.485-31.285h13.295z" style="fill:#8049e2"/><path d="m369.646 340.635 7.539 32.25 20.042 22.148 7.186-5.171-15.765-21.722-4.011-18.936-.969-10.623z" style="fill:#8049e2"/><path d="m360.903 337.988-.21 9.441 18.136 1.681 5.572-2.05-.985-8.418z" style="fill:#8049e2"/><path d="m401.814 279.857 1.309-4.318h2.224v4.318z" style="fill:#f8cba3"/><path d="M145.548 285.996c2.355 3.795 5.363 11.804 6.607 8.126 2.16 2.865-2.682 18.044-19.692 8.622 4.973-2.747 3.795-17.794 13.085-16.748z" style="fill:#4b4be3"/><path d="M166.439 404.38a1.637 1.637 0 0 1-.15-.137c-1.017-4.292-1.45-10.203-1.45-10.203l-3.057 2.151s.574 4.725.602 8.85c1.33.752 2.767.326 4.055-.661z" style="fill:#f8cba3"/><path d="M172.868 407.519c-.061-2.72-4.821-1.831-6.429-3.139-1.288.987-2.725 1.414-4.055.662a4.743 4.743 0 0 1-.175.868c-.721 2.257.353 2.664 2.395 2.502 3.221-.257 8.292.348 8.264-.893z" style="fill:#401a4c"/><path d="M127.501 401.585a1.555 1.555 0 0 1-.021-.202c2.086-3.887 5.681-8.598 5.681-8.598l-3.715-.417s-2.704 3.917-5.419 7.023c.497 1.445 1.855 2.078 3.474 2.194z" style="fill:#f8cba3"/><path d="M130.231 408.198c1.758-2.077-2.394-4.568-2.73-6.613-1.619-.116-2.977-.749-3.474-2.194a4.72 4.72 0 0 1-.707.534c-2.037 1.211-1.503 2.228.133 3.461 2.581 1.944 5.976 5.759 6.778 4.812z" style="fill:#401a4c"/><path d="M155.372 327.554s5.596 19.79-5.2 39.31c-2.805 11.419-20.852 31.917-20.852 31.917l-4.675-2.841s4.607-8.584 6.132-12.027c1.458-3.294 3.492-9.054 6.876-12.716 1.882-2.036 2.74-4.826 2.427-7.58-1.372-12.072-.526-27.023 2.135-31.556" style="fill:#e2469a"/><path d="m149.386 333.32-10.119-2.094s-6.506 6.626-2.721 16.007c3.511 8.702 9.973 15.547 15.873 21.049 1.628 1.518 2.264 1.361 2.56 3.568 1.075 8.012 3.582 14.855 4.611 21.729l1.17 7.812 5.792-.849-3.47-33.682c-4.187-13.434-13.87-26.388-13.87-26.388" style="fill:#e2469a"/><path d="m147.79 303.923 11.772-7.585s-1.431-2.022-1.976-7.332c-.698-6.804-2.427-11.511-2.427-11.511l1.439-1.57s6.745 14.118 8.053 20.007c0 4.536-6.019 8.122-15.292 13.225-2.093-1.57-1.569-5.234-1.569-5.234z" style="fill:#f8cba3"/><path d="M135.604 306.627s4.885 17.098 3.664 24.6c6.979 5.059 15.876 2.442 17.621-.349-1.396-11.864-2.53-14.132-2.53-14.132 1.745-2.094 2.53-6.193-1.134-9.247-1.856-1.547-2.182-5.672-2.182-5.672s-18.493-1.306-15.439 4.8z" style="fill:#8049e2"/><path d="M156.691 278.713s-3.228 1.491-3.838-1.741l-.698-3.232c.137-.115.342-.246.556-.207.386.07.522.642.916 1.472.165.347.419.833.796 1.393-.306-1.671-.617-3.364-.714-5.063-.009-.166-.011-2.465.654-1.569.078.105.113.235.146.362.376 1.437.756 2.872 1.135 4.308-.54-3.472-.58-5.277-.12-5.417.368-.111.517.395.572.657l.941 4.518c-.021-.487-.309-3.852.35-3.964.496-.085.436 1.134.448 1.408l.119 2.724c.06-.638.098-1.277.196-1.912.054-.347.101-.731.245-1.055.174-.392.423-.445.504.079.194 1.247.15 2.549-.039 3.794-.143.941-.511 2.107-.992 3.446" style="fill:#f8cba3"/><path d="m176.542 275.94 10.793-12.211-19.11-52.258-10.793 12.211z" style="fill:#25adbf"/><path d="M144.614 216.482c-6.701 1.422-12.913 4.036-18.345 7.731l-12.156 8.254-10.793 12.211 12.156-8.254c5.433-3.695 11.644-6.309 18.345-7.731l23.611-5.01 10.793-12.211-23.611 5.01z" style="fill:#75d7e6"/><path d="M133.821 228.693c-6.701 1.422-12.913 4.036-18.345 7.731l-12.156 8.254c-3.03 2.063-4.118 5.985-2.713 9.827l6.375 17.433c1.405 3.842 4.998 6.771 8.992 7.343l16.007 2.277c7.158 1.023 14.249.814 20.95-.608l23.611-5.01-19.11-52.258-23.611 5.011z" style="fill:#2abfd4"/><path d="M140.867 276.963a57.749 57.749 0 0 1-6.599-.365c-2.189-.264-4.367-.596-6.552-.891l-6.549-.911-3.274-.455c-.542-.083-1.097-.134-1.638-.25a5.945 5.945 0 0 1-1.558-.608 6.609 6.609 0 0 1-2.393-2.293c-.298-.474-.5-1.007-.684-1.521l-.573-1.551-2.29-6.202-2.29-6.202-1.142-3.107c-.357-1.05-.403-2.357.368-3.302.399-.469.906-.699 1.343-1.031l1.365-.933 2.729-1.866 5.458-3.731c1.806-1.251 3.647-2.501 5.602-3.547a46.52 46.52 0 0 1 6.051-2.736 49.588 49.588 0 0 1 6.376-1.859l6.467-1.382 12.944-2.704.2-.042.069.191 15.345 42.376.036.1-.104.022-14.272 2.981c-2.38.484-4.749 1.049-7.164 1.353a54.228 54.228 0 0 1-7.271.466zm0 0c2.43-.01 4.859-.175 7.265-.512 2.41-.318 4.773-.897 7.151-1.397l14.253-3.072-.067.122-15.613-42.278.269.149-12.926 2.786-6.467 1.368a48.95 48.95 0 0 0-6.32 1.799 46.185 46.185 0 0 0-6.004 2.67c-1.941 1.023-3.761 2.242-5.585 3.489l-5.481 3.697-2.741 1.848-1.37.924c-.441.325-.963.579-1.281.96-.67.801-.661 1.997-.327 2.991l1.12 3.105 2.251 6.216 2.251 6.217.563 1.554c.184.523.371 1.028.659 1.492a6.42 6.42 0 0 0 2.315 2.245 5.76 5.76 0 0 0 1.507.6c.537.119 1.082.171 1.628.259l3.271.476 6.543.952c2.182.309 4.36.654 6.545.932 2.185.261 4.387.4 6.591.408z" style="fill:#401a4c"/><path d="M175.206 259.974c.609 1.678 1.416 2.647 1.991 2.504.085-.019.169-.042.253-.063 6.226-1.546 30.514-7.376 35.475-8.523 3.001-.694 8.05-2.05 7.437-6.102-.415-2.741-3.659-3.457-5.95-2.959-3.471.755-33.782 8.244-39.214 9.593-.134.033-.255.127-.358.286-.549.844-.384 3.2.366 5.264zM165.341 231.975c.609 1.678 1.415 2.647 1.991 2.504.085-.019.169-.042.253-.063 6.226-1.546 30.514-7.377 35.475-8.523 3.001-.694 8.05-2.05 7.437-6.102-.415-2.741-3.659-3.457-5.95-2.959-3.47.755-33.782 8.244-39.214 9.593-.134.033-.255.127-.359.286-.547.843-.383 3.199.367 5.264z" style="fill:#75d7e6"/><path d="m348.824 273.105-10.794-12.211 19.111-52.257 10.793 12.21z" style="fill:#25adbf"/><path d="M380.752 213.647c6.701 1.422 12.913 4.036 18.345 7.731l12.156 8.254 10.793 12.211-12.156-8.254c-5.433-3.695-11.644-6.309-18.345-7.731l-23.611-5.01-10.793-12.211 23.611 5.01z" style="fill:#75d7e6"/><path d="M391.545 225.858c6.701 1.422 12.913 4.036 18.345 7.731l12.156 8.254c3.03 2.063 4.118 5.985 2.713 9.827l-6.375 17.433c-1.405 3.842-4.998 6.771-8.992 7.343l-16.007 2.277c-7.158 1.023-14.249.814-20.95-.608l-23.611-5.011 19.111-52.257 23.61 5.011z" style="fill:#2abfd4"/><path d="M384.499 274.128a53.91 53.91 0 0 1-7.271-.467c-2.415-.304-4.784-.868-7.163-1.353l-14.272-2.982-.103-.022.036-.1 15.346-42.376.069-.189.199.042 12.944 2.704 6.47 1.379a49.596 49.596 0 0 1 6.375 1.858 46.587 46.587 0 0 1 6.051 2.737c1.954 1.046 3.794 2.296 5.602 3.548l5.458 3.731 2.729 1.866 1.365.933c.444.336.934.555 1.344 1.03.771.946.724 2.253.367 3.303l-1.142 3.107-2.29 6.202-2.29 6.202-.573 1.551c-.184.514-.384 1.045-.684 1.521a6.611 6.611 0 0 1-2.394 2.293 5.951 5.951 0 0 1-1.556.608c-.551.118-1.094.167-1.64.251l-3.274.455-6.549.911c-2.184.295-4.363.627-6.552.891a57.612 57.612 0 0 1-6.602.366zm0 0a57.65 57.65 0 0 0 6.594-.406c2.185-.278 4.363-.624 6.545-.932l6.543-.952 3.271-.476c.542-.087 1.099-.141 1.625-.259a5.804 5.804 0 0 0 1.509-.601 6.42 6.42 0 0 0 2.315-2.245c.286-.461.475-.969.659-1.492l.563-1.554 2.251-6.217 2.251-6.217 1.12-3.105c.334-.994.343-2.19-.326-2.99-.308-.372-.846-.639-1.281-.96l-1.37-.924-2.741-1.848-5.482-3.697c-1.823-1.245-3.643-2.464-5.585-3.489a46.11 46.11 0 0 0-6.004-2.67 48.843 48.843 0 0 0-6.322-1.799l-6.465-1.372-12.927-2.786.267-.148-15.612 42.278-.067-.121 14.253 3.071c2.378.5 4.741 1.079 7.151 1.397 2.405.339 4.835.504 7.265.514z" style="fill:#401a4c"/><path d="M141.492 303.661s-7.458-10.337-4.056-14.524c3.402-4.187 7.507-1.697 10.296 3.535 2.789 5.232-1.671 6.671-1.671 6.671l1.729 4.58s-2.896 2.224-6.298-.262z" style="fill:#f8cba3"/><path d="M138.482 293.064c.486 2.748 3.533 12.298-6.019 9.681 2.094-1.439 2.094-3.01.654-7.851-1.439-4.841 3.664-12.823 12.431-8.898.131 1.047 3.101 5.234-7.066 7.068z" style="fill:#4b4be3"/><path d="M132.899 279.18s2.81 1.298 3.342-1.515l.607-2.813c-.12-.1-.298-.214-.484-.18-.336.061-.454.559-.797 1.282a9.353 9.353 0 0 1-.693 1.213c.266-1.455.537-2.929.621-4.408.008-.145.01-2.146-.569-1.366-.068.091-.098.205-.127.315-.327 1.251-.658 2.501-.988 3.751.47-3.023.505-4.594.104-4.716-.321-.096-.451.344-.498.572l-.819 3.933c.018-.424.269-3.353-.305-3.451-.432-.074-.38.987-.39 1.226l-.104 2.371c-.053-.556-.085-1.112-.171-1.664-.047-.302-.088-.636-.213-.918-.151-.341-.368-.388-.439.069-.169 1.085-.131 2.219.034 3.303.124.819.445 1.834.864 3M404.191 277.457s-3.228 1.491-3.838-1.741l-.698-3.232c.137-.115.342-.246.556-.207.386.07.522.641.916 1.472.165.347.419.833.796 1.393-.306-1.671-.617-3.364-.714-5.063-.009-.166-.011-2.465.654-1.569.078.105.113.235.146.362.376 1.437.756 2.872 1.136 4.308-.54-3.472-.58-5.277-.12-5.417.368-.111.517.395.572.657l.941 4.518c-.021-.487-.309-3.851.35-3.964.496-.085.436 1.134.448 1.408l.119 2.723c.06-.638.098-1.277.196-1.912.054-.347.101-.731.245-1.055.174-.392.423-.446.504.079.194 1.247.15 2.549-.039 3.794-.143.941-.511 2.107-.992 3.446" style="fill:#f8cba3"/><path d="m138.582 302.793-11.699-8.375s1.975-1.365 3.021-6.599c1.047-5.234 5.004-9.103 5.004-9.103l-2.095-1.744s-10.641 11.38-11.949 17.268c0 4.536 3.879 7.47 15.417 14.917 4.647 0 2.301-6.364 2.301-6.364z" style="fill:#f8cba3"/><path d="m366.922 302.658 17.335-1.142s.325 8.47 0 13.965c-.325 5.496-3.836 18.581.144 23.553-7.273 5.496-23.237 5.757-24.807 0 2.356-16.225.786-33.497 7.328-36.376z" style="fill:#4b4be3"/><path d="m382.624 302.135 12.626-4.021 4.864-18.912h6.412s-.807 19.697-3.163 22.314c-2.355 2.617-19.105 13.965-19.105 13.965s-5.036-9.944-1.634-13.346z" style="fill:#4b4be3"/><path d="m370.324 303.705 1.674-4.711c-3.375-.523-4.738-4.972 0-10.599s11.673-1.963 11.411 1.308c-.262 3.271-4.711 9.421-4.711 9.421l-.008 2.758c0 .001-3.001 4.44-8.366 1.823z" style="fill:#f8cba3"/><path d="M351.069 252.031c-.498 3.009-2.34 5.721-4.115 6.057-1.775.336-2.811-1.831-2.313-4.84.498-3.009 2.34-5.721 4.115-6.057 1.775-.336 2.811 1.831 2.313 4.84zM360.857 228.667c-.498 3.009-2.34 5.721-4.115 6.057-1.775.336-2.811-1.831-2.313-4.84.498-3.009 2.34-5.721 4.115-6.057 1.775-.336 2.811 1.831 2.313 4.84z" style="fill:#138494"/><path d="M379.575 297.847c-.389-1.199 2.117-3.999.896-4.697s-2.53 1.309-2.53 1.309l-1.047-.479s1.483-1.614 1.134-3.184c-.349-1.57.794-2.443.794-2.443s-8.385.095-5.244-4.703c3.14-4.798 11.08 1.65 10.469 5.139 4.537 2.006-4.099 11.34-4.472 9.058z" style="fill:#e2469a"/><path d="m162.849 217.148-9.018 2.358-9.264 2.336-5.237 1.278a63.53 63.53 0 0 0-5.313 1.545 56.453 56.453 0 0 0-9.935 4.443c-1.512.862-2.928 1.765-4.272 2.643l-3.791 2.452-7.86 5.011 7.688-5.271 3.74-2.528c1.324-.895 2.726-1.859 4.252-2.729a57.01 57.01 0 0 1 9.998-4.55 56.687 56.687 0 0 1 5.373-1.538l5.241-1.239 9.304-2.171c5.455-1.225 9.094-2.04 9.094-2.04zM363.593 214.313l9.096 2.038 9.304 2.171 5.241 1.239c1.796.426 3.601.927 5.373 1.538a57.046 57.046 0 0 1 9.998 4.551c1.525.869 2.927 1.834 4.252 2.729l3.74 2.528 7.688 5.271-7.86-5.011-3.791-2.452c-1.343-.878-2.76-1.781-4.272-2.643a56.592 56.592 0 0 0-9.935-4.443 63.912 63.912 0 0 0-5.313-1.545l-5.237-1.278-9.264-2.336-9.02-2.357z" style="fill:#401a4c"/><path d="M171.138 383.328s-15.317-24.578 6.877-11.228c-1.334-68.915 20.415-22.649 14.77-2.999 25.248-65.09 28.037-13.274 11.493 3.523 31.796-27.691 8.199 10.704 8.199 10.704h-41.339" style="fill:#2abfd4"/><path d="M141.559 299.573s.385.116.954.191c.281.052.615.058.963.061.349-.002.718-.03 1.08-.101.365-.057.716-.172 1.049-.282.322-.135.638-.244.886-.391.259-.126.47-.249.619-.336.151-.085.244-.128.244-.128s-.059.08-.173.213c-.121.124-.267.339-.513.517a4.84 4.84 0 0 1-.864.584 4.59 4.59 0 0 1-1.147.382 4.296 4.296 0 0 1-1.209.04 4.293 4.293 0 0 1-1.015-.251c-.573-.219-.874-.499-.874-.499zM135.263 292.541s.733-.09 1.809-.278c.54-.08 1.16-.228 1.821-.375.654-.173 1.354-.351 2.017-.616a8.915 8.915 0 0 0 1.865-.917c.289-.166.509-.395.758-.572.222-.203.394-.432.577-.627.147-.218.26-.433.382-.617.136-.179.154-.376.218-.521l.174-.475-.067.503c-.038.156-.026.37-.13.575-.088.21-.17.463-.31.711-.169.226-.333.496-.549.742-.24.217-.462.5-.764.689-.294.199-.588.43-.929.58a7.37 7.37 0 0 1-1.025.46 12.57 12.57 0 0 1-2.115.573c-.687.116-1.335.172-1.888.203-1.109.054-1.844-.038-1.844-.038z" style="fill:#401a4c"/><path d="M143.191 286.213s-.024.568-.346 1.355a6.368 6.368 0 0 1-.7 1.274c-.177.201-.328.44-.545.625a4.629 4.629 0 0 1-.656.557c-.226.182-.492.302-.739.442-.247.141-.525.204-.774.305-.254.088-.517.112-.755.162-.238.058-.474.036-.684.056-.422.044-.773-.043-1.014-.062l-.377-.058.379-.052c.24-.026.581-.053.976-.145.197-.048.417-.057.632-.144.216-.078.45-.138.679-.229.454-.194.93-.417 1.346-.735.219-.144.421-.31.607-.49.2-.165.359-.366.535-.541.146-.199.32-.371.446-.563.138-.184.258-.367.359-.542a8.13 8.13 0 0 0 .631-1.215zM139.896 287.251s-.4.112-.96.327c-.283.097-.597.248-.927.406a7.105 7.105 0 0 0-.979.577 5.485 5.485 0 0 0-.867.719c-.251.257-.493.506-.647.757-.354.476-.529.858-.548.849 0 0 .012-.102.049-.28.039-.177.08-.441.22-.725.057-.149.132-.303.23-.457.091-.158.185-.331.323-.477.244-.319.568-.608.917-.853a4.969 4.969 0 0 1 1.107-.569 5.727 5.727 0 0 1 1.043-.256c.623-.088 1.039-.018 1.039-.018zM136.849 295.281s.203.192.408.543c.203.349.427.851.512 1.392.038.27.067.543.05.801-.005.257-.066.496-.111.694-.046.2-.13.355-.182.462-.054.107-.093.163-.093.163s-.01-.071-.015-.188c.007-.115-.022-.281-.028-.471a15.67 15.67 0 0 0-.18-1.367c-.083-.492-.178-.991-.25-1.374a19.75 19.75 0 0 1-.111-.655zM143.191 317.903s.542.004 1.337.032c.397.021.861.022 1.351.02.49-.004 1.011-.014 1.516-.087.256-.022.501-.077.744-.13.23-.078.473-.125.673-.236.216-.087.389-.217.568-.331.145-.146.309-.271.397-.436.114-.149.192-.303.252-.448.075-.14.117-.272.137-.385l.099-.355s.009.132.01.372c.007.121-.003.266-.045.431-.025.17-.069.36-.178.547-.077.205-.237.378-.39.578-.182.164-.376.358-.62.472-.469.272-1.027.418-1.574.485a7.75 7.75 0 0 1-1.607.023c-.508-.035-.973-.13-1.369-.202-.397-.073-.721-.176-.946-.236-.227-.074-.355-.114-.355-.114zM149.611 341.021s.467.565 1.112 1.449a64.415 64.415 0 0 1 4.302 6.751c.529.957.843 1.62.843 1.62s-.468-.565-1.112-1.449a64.33 64.33 0 0 1-4.301-6.752c-.529-.956-.844-1.619-.844-1.619zM139.452 353.8s.763.746 1.864 1.901c.542.585 1.195 1.249 1.862 1.989l2.102 2.307 3.864 4.379c.533.591.963 1.097 1.291 1.426.318.337.524.508.524.508l-.159-.106c-.102-.071-.265-.165-.439-.32a22.108 22.108 0 0 1-1.446-1.286c-.572-.559-1.248-1.203-1.929-1.932l-2.127-2.291-2.048-2.36c-.652-.754-1.226-1.489-1.733-2.104a60.341 60.341 0 0 1-1.626-2.111zM184.577 338.554s-.042 2.683-.041 6.704c-.018 2.01.015 4.356.032 6.867.017 2.512.083 5.19.18 7.867l.17 3.992c.091 1.314.141 2.611.261 3.859.13 1.247.183 2.462.339 3.6.144 1.14.236 2.226.43 3.209.184.984.284 1.904.501 2.689.203.787.316 1.497.522 2.044l.63 1.731-.72-1.7c-.235-.541-.384-1.242-.63-2.025-.261-.782-.41-1.695-.616-2.683-.224-.986-.348-2.071-.526-3.213-.191-1.141-.286-2.355-.419-3.608-.132-1.253-.195-2.553-.299-3.871l-.208-4.002a269.996 269.996 0 0 1-.105-7.885c.005-2.516.077-4.864.141-6.875.059-2.012.176-3.686.24-4.857l.118-1.843zM210.936 340.852l-.09.452-.32 1.268c-.293 1.086-.694 2.645-1.261 4.489a189.047 189.047 0 0 1-2 6.282 244.552 244.552 0 0 1-2.555 7.115c-.483 1.194-.947 2.395-1.441 3.562-.507 1.162-.964 2.323-1.482 3.415-.504 1.098-.983 2.162-1.507 3.14-.507.985-.974 1.921-1.475 2.75-.479.84-.917 1.611-1.384 2.246-.459.638-.799 1.235-1.183 1.653l-1.142 1.352 1.066-1.409c.357-.433.666-1.05 1.086-1.706.426-.654.819-1.445 1.277-2.29.472-.837.91-1.784 1.383-2.779.491-.986.929-2.064 1.429-3.158.505-1.091.949-2.254 1.442-3.416.481-1.168.93-2.371 1.401-3.564a241.256 241.256 0 0 0 2.62-7.073c.797-2.272 1.558-4.388 2.161-6.218.613-1.827 1.133-3.347 1.473-4.419l.386-1.245.116-.447zM217.224 367.211s-.378 1.048-1.193 2.504a27.635 27.635 0 0 1-1.514 2.415 30.568 30.568 0 0 1-2.043 2.557c-.765.813-1.566 1.595-2.38 2.254-.397.342-.799.649-1.204.909-.399.267-.762.537-1.134.733-.361.211-.698.394-.996.554l-.804.354-.703.295.653-.393.749-.439c.274-.194.583-.413.927-.639.35-.216.689-.509 1.061-.797.377-.281.744-.615 1.132-.951.782-.663 1.548-1.449 2.28-2.261a30.008 30.008 0 0 0 2.066-2.467c.614-.824 1.191-1.596 1.639-2.29.923-1.37 1.464-2.338 1.464-2.338zM171.881 371.978s.167.034.44.152c.269.123.66.301 1.077.595.419.289.901.643 1.365 1.078.474.426.935.924 1.375 1.438a20.529 20.529 0 0 1 2.111 3.046c.262.431.427.823.567 1.081l.198.418s-.428-.524-1.031-1.323c-.302-.4-.661-.859-1.049-1.346a39.822 39.822 0 0 0-1.228-1.51 27.035 27.035 0 0 0-1.291-1.448c-.427-.448-.832-.861-1.21-1.181-.736-.667-1.324-1-1.324-1zM376.175 297.342s.029.337-.205.788c-.128.211-.293.47-.549.667-.249.201-.56.362-.883.456-.653.192-1.323.127-1.787.013-.236-.042-.42-.143-.551-.183-.13-.051-.201-.088-.201-.088s.326-.03.783-.047a8.27 8.27 0 0 0 .766-.071c.273-.033.561-.079.83-.167.276-.068.528-.191.757-.319.226-.133.426-.286.578-.445.307-.315.462-.604.462-.604zM375.082 284.708s.281-.136.737-.208c.227-.022.497-.065.787-.044.291.006.599.071.904.15.298.104.595.228.838.406.123.086.239.172.33.279.092.103.189.186.252.289.286.384.316.712.331.7 0 0-.063-.05-.158-.14-.082-.1-.237-.206-.401-.337a3.474 3.474 0 0 0-.609-.362 5.117 5.117 0 0 0-.749-.293 11.922 11.922 0 0 0-1.524-.33l-.738-.11zM379.261 284.659s.269-.074.679-.038c.2.033.445.056.689.156.248.087.495.235.719.417.213.194.411.418.519.67.123.242.169.497.183.703.032.208-.017.382-.033.498-.022.117-.042.181-.042.181-.015.003-.079-.268-.235-.605-.058-.174-.181-.351-.304-.526a2.449 2.449 0 0 0-.456-.491c-.346-.3-.78-.532-1.123-.698-.343-.16-.596-.267-.596-.267zM384.257 315.482l-.126.081a.907.907 0 0 1-.411.138c-.389.05-.953-.237-1.322-.774-.786-1.052-1.19-2.772-1.195-4.456a12.67 12.67 0 0 1 .233-2.461c.146-.775.368-1.478.579-2.068.21-.592.449-1.058.607-1.385l.275-.502-.173.544c-.115.343-.246.843-.404 1.437-.301 1.192-.563 2.812-.55 4.432.011 1.61.281 3.253.892 4.281.297.512.705.835 1.057.843.342.012.54-.124.538-.11zM395.25 298.114s.007.284-.046.691a9.015 9.015 0 0 1-.869 2.837c-.184.367-.35.598-.35.598s-.008-.285.045-.691a8.934 8.934 0 0 1 .871-2.837c.183-.366.349-.598.349-.598zM372.835 354.278s-.363.031-.896-.027a8.637 8.637 0 0 1-1.91-.427 7.5 7.5 0 0 1-1.756-.88c-.445-.305-.688-.578-.688-.578s.089.024.235.077c.141.063.358.119.6.217.492.179 1.145.399 1.796.629.651.227 1.304.466 1.796.653.493.188.823.336.823.336zM402.771 373.095s.655.118 1.617.359a53.383 53.383 0 0 1 6.899 2.244c.92.371 1.519.662 1.519.662s-.655-.117-1.617-.358a52.827 52.827 0 0 1-6.899-2.246 27.154 27.154 0 0 1-1.519-.661zM411.719 370.556s.519.073 1.277.246a32.722 32.722 0 0 1 5.404 1.746c.716.303 1.179.548 1.179.548s-.519-.072-1.277-.245a32.737 32.737 0 0 1-5.403-1.746c-.717-.304-1.18-.549-1.18-.549zM93.677 366.309s.483.405 1.158 1.057a47.03 47.03 0 0 1 4.573 5.118c.572.743.92 1.269.92 1.269s-.484-.405-1.158-1.057a47.668 47.668 0 0 1-4.571-5.119 23.482 23.482 0 0 1-.922-1.268zM100.327 365.29s.475.385 1.137 1.007a45.511 45.511 0 0 1 2.336 2.368 44.096 44.096 0 0 1 2.153 2.536c.562.715.902 1.222.902 1.222s-.475-.384-1.138-1.007a44.781 44.781 0 0 1-4.489-4.905c-.559-.714-.901-1.221-.901-1.221z" style="fill:#401a4c"/><path d="M184.366 172.286h53.246s-.064-13.403-13.584-8.808c-13.52 4.595-9.896-10.763-27.054-9.598-15.668 1.065-23.652 12.116-12.608 18.406zM266.939 94.704h59.369s-4.564-9.783-10.751-4.892c-6.186 4.892-6.421-16.533-18.934-7.668-12.513 8.866-33.967-24.422-29.684 12.56z" style="fill:#fff"/></svg>